<svg width="350" height="74.843" version="1.1" viewBox="0 0 92.604 19.802" xmlns="http://www.w3.org/2000/svg">
<style>
.primary {
  fill: #ff8700;
}
.secondary {
  fill: #eee;
  stroke: #555;
}
</style>
<g transform="translate(-.041341 -275.61)">
<path d="m3.1505 276.35c-0.06165 0-0.11128 0.0496-0.11128 0.11128v2.5224c2e-7 0.0617 0.049631 0.11128 0.11128 0.11128h1.0752v3.7212a6.2622 6.2622 0 0 0-3.4425 5.5902 6.2622 6.2622 0 0 0 6.2622 6.2622 6.2622 6.2622 0 0 0 6.2622-6.2622 6.2622 6.2622 0 0 0-3.4425-5.5838v-3.7276h1.0752c0.06165 0 0.11128-0.0496 0.11128-0.11128v-2.5224c0-0.0616-0.04963-0.11128-0.11128-0.11128z" class="secondary" stroke-linejoin="round" stroke-width="1"/>
<circle cx="7.0454" cy="288.62" r="4.2059" class="primary" stroke-width="0"/>
<circle cx="6.1189" cy="289.59" r=".33384" fill-opacity="0" stroke-width="0"/>
</g>
<g transform="translate(-.041341 -275.61)">
<g stroke-width="0">
<rect transform="rotate(22.989)" x="116.77" y="263.09" width="2.8933" height="2.8933" ry=".63059" fill="#fff"/>
<circle transform="rotate(22.989)" cx="117.51" cy="263.89" r=".33384"/>
<circle transform="rotate(22.989)" cx="118.9" cy="265.17" r=".33384"/>
<rect transform="rotate(-12.211)" x="-53.868" y="281.07" width="2.8933" height="2.8933" ry=".63059" fill="#fff"/>
<circle transform="rotate(-12.211)" cx="-52.421" cy="282.52" r=".33384"/>
</g>
<g transform="matrix(.1402 0 0 .1402 .035545 254.89)" stroke-width=".0736px" class="secondary">
<path d="m148.11 226.79q0-5.2906-1.7635-8.0961-1.6834-2.8056-5.2104-2.8056-1.6032 0-3.2064 0.48096-1.523 0.4008-2.6453 1.0421v20.441q1.1222 0.24048 2.3246 0.32064 1.2826 0.0802 2.1643 0.0802 3.8477 0 6.0921-2.5651 2.2445-2.6453 2.2445-8.8977zm10.02 0.24048q0 4.4889-1.2024 8.1763-1.2024 3.6072-3.527 6.1723-2.3246 2.5651-5.6913 4.008-3.3667 1.3627-7.6953 1.3627-3.8477 0-7.8557-0.56112t-6.7334-1.4429v-52.825l9.8596-1.6834v18.838q2.0842-0.96191 4.008-1.2826 1.9238-0.4008 3.8477-0.4008 3.6874 0 6.4929 1.4429 2.8056 1.3627 4.6493 4.008 1.9238 2.5651 2.8858 6.1723 0.96192 3.6072 0.96192 8.016z"/>
<path d="m204.13 226.95q0 4.4889-1.2826 8.1763-1.2826 3.6072-3.6072 6.2525-2.3246 2.6453-5.6112 4.0882-3.2064 1.4429-7.2144 1.4429t-7.2945-1.4429q-3.2064-1.4429-5.6112-4.0882-2.3246-2.6453-3.6072-6.2525-1.2826-3.6874-1.2826-8.1763 0-4.4088 1.2826-8.016 1.3627-3.6874 3.6874-6.2525 2.4048-2.6453 5.6913-4.008 3.2866-1.4429 7.1342-1.4429 3.9278 0 7.1342 1.4429 3.2866 1.3627 5.6112 4.008 2.4048 2.5651 3.6874 6.2525 1.2826 3.6072 1.2826 8.016zm-25.491 0.0802q0 5.0501 1.7635 8.1763 1.8437 3.1262 5.8517 3.1262 3.8477 0 5.7715-3.1262 2.004-3.1262 2.004-8.1763 0-5.0501-1.8437-8.0961-1.7635-3.1262-5.7715-3.1262-3.8477 0-5.8517 3.1262-1.9238 3.0461-1.9238 8.0961z"/>
<path d="m232.26 238.82q1.6032 0 3.1262 0 1.523-0.0802 2.6453-0.24048v-8.6572q-0.96192-0.16032-2.3246-0.24048-1.3627-0.16032-2.485-0.16032-1.523 0-2.9659 0.24048-1.4429 0.16032-2.5651 0.64128-1.0421 0.48096-1.6834 1.3627-0.64128 0.88176-0.64128 2.3246 0 2.5651 1.9238 3.6873 1.9238 1.0421 4.9699 1.0421zm-0.88176-31.583q4.6493 0 7.6953 1.1222 3.1262 1.0421 4.9699 3.0461 1.8437 1.9238 2.6453 4.8096 0.8016 2.8056 0.8016 6.3326v22.445q-2.1643 0.48096-6.4128 1.1222t-9.539 0.64128q-3.6072 0-6.5731-0.64128-2.8858-0.64128-4.9699-2.0842-2.0842-1.523-3.2064-3.8477-1.1222-2.4048-1.1222-5.8517 0-3.2866 1.2826-5.531 1.2826-2.2445 3.4469-3.6072 2.1643-1.3627 4.9699-1.9238 2.8056-0.64128 5.8517-0.64128 3.8477 0 6.8136 0.64128v-1.2024q0-2.8056-1.7635-4.6493-1.7635-1.9238-6.0921-1.9238-2.8056 0-5.4509 0.4008-2.5651 0.4008-4.1683 0.96192l-1.3627-7.9358q1.8437-0.64127 5.2104-1.1222 3.3667-0.56112 6.9739-0.56112z"/>
<path d="m293.02 218.22q-0.96191-0.24048-2.3246-0.48096-1.2826-0.24048-2.6453-0.4008-1.3627-0.24048-2.6453-0.32064-1.2826-0.0802-2.1643-0.0802-2.0842 0-4.0881 0.24048-2.004 0.16032-4.0882 0.72144v27.976h-9.9398v-35.19q3.9278-1.4429 8.016-2.3246 4.1683-0.88176 9.6993-0.88176 0.80159 0 2.2445 0.0802 1.523 0.0802 3.2064 0.32064 1.6834 0.16032 3.3667 0.48096 1.7635 0.24047 3.1262 0.72143z"/>
<path d="m316.1 226.79q0 5.0501 1.8437 8.2564 1.9238 3.2064 6.0921 3.2064 1.2024 0 2.2445-0.0802 1.0421-0.0802 2.1643-0.24048v-20.521q-1.1222-0.64128-2.5651-1.0421-1.4429-0.48096-3.0461-0.48096-3.527 0-5.1302 2.8056-1.6032 2.8056-1.6032 8.0961zm22.204 17.956q-2.7254 0.88176-6.6533 1.4429-3.9278 0.56112-7.6953 0.56112-8.8176 0-13.387-5.2104-4.4889-5.2104-4.4889-14.268 0-9.2184 3.7675-14.509 3.8477-5.3707 11.303-5.3707 2.004 0 3.9278 0.48096 1.9238 0.4008 3.3667 1.2024v-17.154l9.8596-1.6834z"/>
<path d="m362.34 225.83q0 4.6493 1.6834 7.1342 1.6834 2.4048 5.2905 2.4048 1.6032 0 2.9659-0.4008 1.4429-0.4008 2.5651-1.0421v-18.116q-1.1222-0.24048-2.004-0.32064-0.88176-0.0802-1.8437-0.0802-8.6573 0-8.6573 10.421zm22.445 15.471q0 9.2184-4.4889 13.627-4.4088 4.4088-14.268 4.4088-3.527 0-6.8136-0.72144-3.2064-0.72144-6.1723-1.6834l1.8437-8.3366q2.3246 0.88176 4.8897 1.6032 2.5651 0.80159 6.4128 0.80159 2.5651 0 4.2485-0.64127 1.6834-0.56112 2.6453-1.6032t1.3627-2.485q0.40079-1.3627 0.40079-2.9659v-1.523q-2.0842 0.8016-3.8477 1.2024-1.6834 0.4008-3.6874 0.4008-7.3747 0-11.222-4.6493-3.7675-4.6493-3.7675-12.906 0-9.2985 5.1302-13.868 5.1302-4.5691 13.948-4.5691 6.1723 0 13.387 2.004z"/>
<path d="m415.64 238.82q1.6032 0 3.1262 0 1.523-0.0802 2.6453-0.24048v-8.6572q-0.96192-0.16032-2.3246-0.24048-1.3627-0.16032-2.485-0.16032-1.523 0-2.9659 0.24048-1.4429 0.16032-2.5651 0.64128-1.0421 0.48096-1.6834 1.3627-0.64127 0.88176-0.64127 2.3246 0 2.5651 1.9238 3.6873 1.9238 1.0421 4.9699 1.0421zm-0.88175-31.583q4.6493 0 7.6953 1.1222 3.1262 1.0421 4.9699 3.0461 1.8437 1.9238 2.6453 4.8096 0.8016 2.8056 0.8016 6.3326v22.445q-2.1643 0.48096-6.4128 1.1222-4.2485 0.64128-9.539 0.64128-3.6072 0-6.5731-0.64128-2.8858-0.64128-4.9699-2.0842-2.0842-1.523-3.2064-3.8477-1.1222-2.4048-1.1222-5.8517 0-3.2866 1.2826-5.531 1.2826-2.2445 3.4469-3.6072 2.1643-1.3627 4.9699-1.9238 2.8056-0.64128 5.8517-0.64128 3.8477 0 6.8136 0.64128v-1.2024q0-2.8056-1.7635-4.6493-1.7635-1.9238-6.0921-1.9238-2.8056 0-5.4509 0.4008-2.5651 0.4008-4.1683 0.96192l-1.3627-7.9358q1.8437-0.64127 5.2104-1.1222 3.3667-0.56112 6.9739-0.56112z"/>
<path d="m468.86 207.8q3.1262 0 5.1302 0.96191 2.004 0.96192 3.1262 2.8858 1.2024 1.9238 1.6032 4.8897 0.4008 2.8858 0.4008 6.8136v22.525h-8.016v-23.006q0-2.2445-0.32064-3.6072-0.24048-1.3627-0.72144-2.0842-0.4008-0.72144-1.0421-0.96192-0.56112-0.24048-1.2024-0.24048-0.72144 0-1.523 0.16032-0.8016 0.0802-1.4429 0.4008 0.24048 1.523 0.4008 3.3667t0.16032 4.0882v7.535h-8.016v-8.6572q0-3.8477-0.8016-5.3707-0.72144-1.523-2.4048-1.523-0.48096 0-1.2024 0.0802-0.64128 0.0802-1.2826 0.24048v29.579h-8.016v-36.232q3.1262-0.88176 6.1723-1.3627 3.0461-0.48096 5.3707-0.48096 2.0842 0 3.6874 0.56112 1.6834 0.48095 2.8858 1.6834 1.3627-0.88176 3.2064-1.523 1.8437-0.72144 3.8477-0.72144z"/>
<path d="m489.7 227.35q0-4.9699 1.523-8.7374 1.523-3.7675 4.008-6.2525 2.485-2.5651 5.6914-3.8477 3.2064-1.2826 6.5731-1.2826 8.3366 0 12.665 4.9699 4.3286 4.8898 4.3286 14.349 0 0.96192-0.0802 2.004 0 1.0421-0.0802 1.6834h-24.449q0 3.6874 3.0461 5.8517 3.0461 2.0842 7.8556 2.0842 2.9659 0 5.6112-0.64127 2.7254-0.64128 4.5691-1.2826l1.3627 8.4168q-2.5651 0.88176-5.4509 1.4429-2.8858 0.64128-6.4929 0.64128-4.8096 0-8.6573-1.2024-3.7675-1.2826-6.4929-3.6874-2.6453-2.485-4.0881-6.0921-1.4429-3.6072-1.4429-8.4168zm25.25-3.9278q0-1.523-0.4008-2.8858-0.4008-1.4429-1.2826-2.5651-0.88176-1.1222-2.2445-1.7635-1.3627-0.72144-3.3667-0.72144-1.9238 0-3.3667 0.64128-1.3627 0.64128-2.3246 1.7635-0.88176 1.1222-1.4429 2.5651-0.48096 1.4429-0.64128 2.9659z"/>
</g>
<g transform="matrix(.1402 0 0 .1402 .035545 254.89)" class="primary" stroke-width="1.0736px">
<path d="m568.64 244.27q-0.24048 0.16032-1.1222 0.56112-0.8016 0.4008-2.1643 0.88176-1.3627 0.4008-3.3667 0.72144-1.9238 0.32064-4.4088 0.32064-6.8136 0-9.9398-4.008-3.1262-4.0882-3.1262-11.864v-31.984h-10.421v-8.1763h20.28v40.881q0 3.8477 1.523 5.2104 1.523 1.3627 3.8477 1.3627 2.9659 0 4.9699-0.80159 2.004-0.8016 2.6453-1.0421z"/>
<path d="m597.17 238.82q1.6032 0 3.1262 0 1.523-0.0802 2.6453-0.24048v-8.6572q-0.96192-0.16032-2.3246-0.24048-1.3627-0.16032-2.485-0.16032-1.523 0-2.9659 0.24048-1.4429 0.16032-2.5651 0.64128-1.0421 0.48096-1.6834 1.3627-0.64128 0.88176-0.64128 2.3246 0 2.5651 1.9238 3.6873 1.9238 1.0421 4.9699 1.0421zm-0.88176-31.583q4.6493 0 7.6953 1.1222 3.1262 1.0421 4.9699 3.0461 1.8437 1.9238 2.6453 4.8096 0.8016 2.8056 0.8016 6.3326v22.445q-2.1643 0.48096-6.4128 1.1222t-9.539 0.64128q-3.6072 0-6.5731-0.64128-2.8858-0.64128-4.9699-2.0842-2.0842-1.523-3.2064-3.8477-1.1222-2.4048-1.1222-5.8517 0-3.2866 1.2826-5.531 1.2826-2.2445 3.4469-3.6072 2.1643-1.3627 4.9699-1.9238 2.8056-0.64128 5.8517-0.64128 3.8477 0 6.8136 0.64128v-1.2024q0-2.8056-1.7635-4.6493-1.7635-1.9238-6.0922-1.9238-2.8056 0-5.4509 0.4008-2.5651 0.4008-4.1683 0.96192l-1.3627-7.9358q1.8437-0.64127 5.2104-1.1222 3.3667-0.56112 6.9739-0.56112z"/>
<path d="m650.55 226.79q0-5.2906-1.7635-8.0961-1.6834-2.8056-5.2104-2.8056-1.6032 0-3.2064 0.48096-1.523 0.4008-2.6453 1.0421v20.441q1.1222 0.24048 2.3246 0.32064 1.2826 0.0802 2.1643 0.0802 3.8477 0 6.0921-2.5651 2.2445-2.6453 2.2445-8.8977zm10.02 0.24048q0 4.4889-1.2024 8.1763-1.2024 3.6072-3.527 6.1723-2.3246 2.5651-5.6913 4.008-3.3667 1.3627-7.6953 1.3627-3.8477 0-7.8557-0.56112t-6.7334-1.4429v-52.825l9.8596-1.6834v18.838q2.0842-0.96191 4.008-1.2826 1.9238-0.4008 3.8477-0.4008 3.6874 0 6.4929 1.4429 2.8056 1.3627 4.6493 4.008 1.9238 2.5651 2.8858 6.1723 0.96192 3.6072 0.96192 8.016z"/>
</g>
</g>
</svg>
